<svg xmlns="http://www.w3.org/2000/svg"
shape-rendering="geometricPrecision"
width="4000" height="4000" viewBox="0 0 654 654">
  <metadata>null</metadata>

<path d="
M 28.869 514.016
C 29.388 513.081 30.526 513.505 31.537 513.284
C 32.817 513.004 34.185 512.049 34.65 510.782
C 35.071 509.636 34.857 508.195 34.858 506.999
C 34.86 504.666 34.866 502.332 34.871 499.999
C 34.89 491.999 34.873 483.999 34.908 475.999
C 34.92 473.271 35.005 470.544 34.973 467.816
C 34.96 466.67 35.09 465.231 34.58 464.173
C 33.491 461.915 30.622 462.568 28.97 461.301
C 30.232 460.543 32.26 461.031 33.705 461.08
C 37.3 461.202 40.897 461.087 44.491 461.12
C 45.578 461.13 48.738 460.576 49.018 461.765
C 47.186 462.593 45.229 462.049 43.825 463.888
C 42.249 465.953 42.917 470.787 42.914 473.341
C 42.904 481.729 42.916 490.119 42.923 498.508
C 42.925 501.394 42.889 504.282 42.92 507.168
C 42.935 508.631 42.811 510.442 43.672 511.711
C 45.039 513.725 49.765 513.12 51.946 513.133
C 58.482 513.169 64.712 512.649 68.304 506.439
C 69.605 504.188 70.118 501.624 70.999 499.202
C 72.597 499.122 71.767 501.49 71.634 502.63
C 71.218 506.182 70.197 510.975 70.937 514.518
C 70.676 514.903 68.984 514.633 68.503 514.637
C 66.023 514.662 63.545 514.571 61.064 514.623
C 53.958 514.773 46.824 514.4 39.716 514.39
C 36.233 514.386 32.416 515.072 29.001 514.583
C 28.957 514.394 28.913 514.205 28.869 514.016 Z"
opacity="1" fill="rgb(5,7,7)" fill-rule="evenodd" />
<path d="
M 72.519 461.453
C 74.119 460.659 75.761 461.044 77.514 461.031
C 81.075 461.005 84.665 461.2 88.221 460.997
C 89.346 460.933 92.579 460.371 93.374 461.097
C 93.231 462.251 89.865 462.62 88.911 463.508
C 88.149 465.667 90.135 468.01 91.189 469.742
C 93.988 474.34 96.809 478.964 99.496 483.628
C 100.303 485.028 101.129 486.416 101.986 487.784
C 102.286 488.263 102.516 489.163 103.029 489.414
C 104.054 488.513 104.781 486.194 105.545 484.98
C 108.352 480.521 110.839 475.811 113.354 471.175
C 114.371 469.302 116.052 466.928 115.39 464.664
C 114.494 461.601 110.793 463.208 109.559 461.311
C 110.086 460.626 111.848 460.929 112.702 460.954
C 115.564 461.035 118.511 460.737 121.357 460.996
C 122.187 461.071 125.08 460.54 124.787 461.682
C 123.353 463.277 120.566 463.134 118.969 464.887
C 115.936 468.217 113.897 473.385 111.806 477.361
C 110.144 480.521 108.373 483.669 106.56 486.744
C 105.705 488.195 104.294 489.887 103.902 491.537
C 103.42 493.569 103.828 496.096 103.838 498.178
C 103.855 502.067 103.473 506.16 103.942 510.023
C 104.128 511.558 104.994 512.888 106.536 513.284
C 107.631 513.565 109.847 513.314 109.832 514.858
C 104.778 514.345 99.271 514.343 94.209 514.758
C 92.953 514.861 89.382 515.521 89.831 513.764
C 91.114 513.524 92.925 513.606 94.043 512.836
C 96.02 511.475 95.777 509.657 95.777 507.506
C 95.777 504.339 95.783 501.171 95.808 498.004
C 95.821 496.421 96.127 494.607 95.752 493.063
C 95.209 490.831 93.034 488.406 91.833 486.448
C 89.172 482.107 86.624 477.699 83.982 473.347
C 82.062 470.186 80.185 466.131 77.389 463.645
C 76.097 462.496 73.985 462.36 72.519 461.453 Z"
opacity="1" fill="rgb(5,6,6)" fill-rule="evenodd" />
<path d="
M 132.753 496.551
C 133.122 496.618 133.528 496.577 133.859 496.753
C 134.019 496.839 134.267 498.35 134.329 498.57
C 134.848 500.438 135.386 502.25 136.197 504.021
C 138.177 508.347 141.829 512.212 146.435 513.645
C 150.762 514.991 155.726 514.992 159.552 512.252
C 164.032 509.045 163.248 501.785 160.258 497.934
C 154.731 490.815 143.823 490.443 137.721 483.851
C 132.539 478.252 133.213 468.833 138.796 463.722
C 141.455 461.29 145.135 460.045 148.684 459.855
C 151.57 459.7 154.551 460.267 157.205 461.402
C 158.884 462.121 161.033 463.811 162.889 463.768
C 163.865 463.054 164.473 461.331 165.097 460.297
C 166.128 460.027 165.926 461.146 165.912 461.937
C 165.886 463.454 165.815 464.968 165.799 466.486
C 165.773 468.934 165.738 471.377 165.83 473.825
C 165.856 474.526 166.221 476.118 165.733 476.66
C 164.599 476.897 164.53 475.758 164.287 474.901
C 163.661 472.698 162.614 470.605 161.477 468.62
C 158.079 462.688 149.943 458.943 143.651 462.73
C 137.911 466.184 139.507 473.868 143.946 477.601
C 152.086 484.447 167.225 485.33 168.968 498.004
C 169.203 499.712 169.108 501.244 168.812 502.949
C 168.441 505.092 167.464 507.192 166.129 508.899
C 164.44 511.058 162.397 512.849 159.872 513.971
C 155.342 515.984 149.936 516.192 145.178 514.923
C 142.371 514.174 138.991 511.602 136.013 512.279
C 135.357 512.894 134.072 515.742 133.232 515.619
C 132.461 514.288 132.925 511.544 132.919 510.004
C 132.902 505.518 132.874 501.032 132.753 496.551 Z"
opacity="1" fill="rgb(6,8,8)" fill-rule="evenodd" />
<path d="
M 194.455 252.105
C 195.257 247.095 195.505 242.043 196.629 237.068
C 200.713 219 209.403 200.819 222.798 187.77
C 223.122 188.653 222.879 189.571 222.962 190.496
C 223.127 192.307 223.942 195.103 223.182 196.821
C 221.998 199.496 219.378 201.982 217.759 204.441
C 215.126 208.437 212.756 212.654 210.706 216.977
C 204.67 229.71 201.484 243.362 201.018 257.417
C 200.867 261.981 200.797 266.845 201.48 271.373
C 203.626 285.59 206.599 299.133 213.352 312.001
C 215.162 315.451 217.135 318.739 219.26 322.003
C 219.945 323.055 221.625 324.715 221.552 326.046
C 221.47 327.552 219.84 329.701 219.145 331.017
C 218.965 331.358 218.567 332.622 218.156 332.399
C 214.071 326.316 209.851 320.491 206.524 313.926
C 197.042 295.216 192.692 273.004 194.455 252.105 Z"
opacity="1" fill="rgb(177,146,97)" fill-rule="evenodd" />
<path d="
M 344.807 321.401
C 345.708 320.69 346.329 319.629 347.105 318.784
C 348.798 316.942 350.949 314.789 351.876 312.422
C 354.181 310.157 355.628 306.57 357.129 303.745
C 360.976 296.501 364.635 288.281 366.398 280.242
C 367.874 280.302 369.333 280.446 370.786 280.715
C 371.196 284.342 369.501 288.882 368.881 292.471
C 367.293 301.667 365.559 310.836 363.938 320.027
C 363.446 322.56 362.587 325.373 362.746 327.967
C 361.572 333.747 360.453 339.571 359.25 345.35
C 357.781 345.675 356.012 345.442 354.51 345.429
C 351.344 345.4 348.177 345.422 345.01 345.416
C 334.674 345.397 324.338 345.344 314.002 345.309
C 291.336 345.231 268.669 345.374 246.002 345.319
C 232.374 345.286 218.525 344.658 204.92 345.492
C 204.169 344.647 204.541 342.228 204.477 341.064
C 205.145 340.503 206.385 340.687 207.24 340.651
C 209.119 340.572 211.006 340.374 212.861 340.071
C 219.089 339.053 223.87 335.698 225.984 329.61
C 228.19 323.255 227.618 316.124 227.621 309.506
C 227.627 298.673 227.605 287.839 227.621 277.006
C 227.661 249.673 227.725 222.341 227.698 195.008
C 227.69 187.008 227.631 179.007 227.652 171.007
C 227.667 165.561 228.05 159.959 226.612 154.639
C 226.211 153.157 225.61 151.675 224.865 150.334
C 224.183 149.105 223.453 147.92 222.439 146.929
C 217.585 142.187 211.1 143.179 205.044 142.087
C 205.016 140.724 204.728 139.024 205.283 137.774
C 228.565 137.834 252.011 138.433 275.278 137.654
C 275.339 139.027 274.94 140.858 275.281 142.141
C 270.301 142.206 263.785 142.303 259.488 145.137
C 254.668 148.316 253.284 153.866 252.88 159.29
C 252.121 169.449 252.784 179.814 252.788 189.997
C 252.8 222.498 252.716 254.998 252.74 287.498
C 252.747 298.331 252.69 309.164 252.701 319.997
C 252.707 326.196 253.061 332.5 252.687 338.684
C 257.639 337.98 263.011 338.658 268.008 338.658
C 277.593 338.658 287.19 338.854 296.772 338.642
C 307.165 338.412 317.318 337.595 326.991 333.439
C 333.35 330.706 340.325 326.829 344.807 321.401 Z"
opacity="1" fill="rgb(2,6,7)" fill-rule="evenodd" />
<path d="
M 207.422 496.591
C 208.611 491.831 210.711 487.521 214.863 484.644
C 216.604 483.438 218.43 482.53 220.351 481.654
C 220.874 481.415 222.329 481.126 222.478 480.558
C 222.029 479.042 220.92 477.647 220.207 476.235
C 218.782 473.414 217.982 470.179 218.506 467.012
C 219.875 458.735 229.417 455.298 236.593 458.483
C 242.209 460.976 243.362 467.732 239.501 472.363
C 236.772 475.637 232.85 476.709 229.486 479.031
C 231.045 480.84 232.192 483.13 233.513 485.13
C 237.379 490.981 241.223 497.492 246.162 502.495
C 246.943 502.588 247.668 499.653 247.89 499.015
C 249.216 495.213 251.26 490.797 249.453 486.759
C 247.737 482.924 244.795 484.573 241.934 482.946
C 242.577 481.756 244.983 482.282 246.265 482.311
C 250.012 482.396 253.754 482.324 257.502 482.332
C 258.914 482.335 261.028 481.83 261.247 483.597
C 259.695 483.537 257.542 483.464 256.078 484.077
C 251.517 485.987 251.65 492.868 250.18 496.795
C 249.365 498.973 247.16 501.803 247.111 504.076
C 250.539 508.323 257.671 515.349 262.764 509.159
C 263.524 508.236 264.005 507.231 264.437 506.12
C 266.388 506.358 265.036 508.58 264.529 509.73
C 263.297 512.526 261.155 515.262 258.172 516.271
C 251.649 518.479 246.584 513.904 242.444 509.558
C 241.048 510.356 239.994 511.669 238.671 512.581
C 235.657 514.659 232.298 516.012 228.689 516.585
C 216.769 518.477 205.276 509.205 207.422 496.591 Z
M 214.415 492.603
C 213.379 504.473 224.838 517.244 237.054 511.138
C 238.484 510.422 240.307 509.579 241.422 508.418
C 240.945 507.349 239.611 506.265 238.858 505.341
C 237.431 503.589 236.062 501.751 234.758 499.906
C 230.585 493.998 227.203 487.504 223.019 481.634
C 218.238 484.242 215.455 487.129 214.415 492.603 Z
M 223.933 463.065
C 222.964 467.027 224.642 470.907 226.54 474.312
C 227.163 475.43 227.764 476.998 228.699 477.863
C 229.299 478.006 229.728 477.468 230.15 477.141
C 231.28 476.267 232.538 475.646 233.539 474.594
C 236.493 471.489 237.415 465.93 235.166 462.134
C 233.527 459.368 229.618 457.34 226.566 459.321
C 225.234 460.186 224.549 461.67 223.933 463.065 Z"
opacity="1" fill="rgb(179,147,97)" fill-rule="evenodd" />
<path d="
M 234.58 350.764
C 236.582 350.624 238.58 350.794 240.586 350.721
C 242.206 350.662 244.018 350.36 245.603 350.722
C 249.684 354.631 254.593 357.429 259.551 360.093
C 266.296 363.715 273.187 367.018 280.677 368.787
C 281.27 370.563 280.296 373.074 280.404 374.965
C 279.499 375.16 278.31 374.653 277.41 374.451
C 274.402 373.776 271.508 372.828 268.616 371.768
C 259.716 368.504 251.75 363.678 243.943 358.402
C 240.851 356.313 236.677 353.909 234.58 350.764 Z"
opacity="1" fill="rgb(177,143,93)" fill-rule="evenodd" />
<path d="
M 257.996 167.113
C 258.139 164.893 258.071 162.598 258.391 160.398
C 274.378 155.052 290.666 152.576 307.503 154.494
C 317.044 155.58 326.538 158.086 335.426 161.676
C 389.653 183.578 420.362 246.942 403.829 303.07
C 394.847 333.56 373.054 359.572 343.426 371.78
C 337.089 374.391 330.468 376.407 323.748 377.77
C 321.976 378.129 320.18 378.342 318.399 378.648
C 317.631 378.78 316.764 379.198 316.006 378.987
C 316.352 376.91 316.309 374.14 316.021 372.061
C 317.951 371.119 321.07 371.294 323.221 370.772
C 329.593 369.227 335.852 367.575 341.901 364.997
C 364.866 355.209 383.007 336.368 392.894 313.601
C 403.747 288.608 404.425 258.124 394.621 232.657
C 382.101 200.135 355.091 173.618 321.216 164.216
C 305.87 159.956 289.578 159.73 274.059 163.123
C 270.462 163.909 266.805 164.85 263.347 166.12
C 261.539 166.784 259.822 167.837 257.975 168.364
C 257.914 167.949 257.982 167.532 257.996 167.113 Z"
opacity="1" fill="rgb(181,147,98)" fill-rule="evenodd" />
<path d="
M 265.834 203.732
C 270.616 203.231 275.692 203.708 280.507 203.703
C 290.675 203.693 300.842 203.73 311.01 203.713
C 315.508 203.705 320.007 203.718 324.505 203.665
C 326.292 203.644 328.848 203.124 330.531 203.73
C 330.337 204.849 330.839 206.73 330.338 207.705
C 324.496 207.902 317.732 208.289 313.442 212.833
C 312.517 213.813 311.877 214.952 311.345 216.184
C 311.073 216.814 310.939 217.946 310.435 218.396
C 300.801 218.402 291.862 224.578 288.322 233.479
C 286.694 237.572 286.478 242.921 286.999 247.246
C 287.349 250.155 288.127 253.02 289.341 255.686
C 289.949 257.022 291.739 258.993 291.828 260.399
C 290.165 261.684 287.794 263.099 285.874 263.993
C 285.593 262.966 285.925 261.592 285.937 260.509
C 285.964 258.174 285.965 255.838 285.961 253.503
C 285.948 244.943 286.136 236.389 285.908 227.832
C 285.74 221.559 285.148 214.668 279.5 210.775
C 275.311 207.888 270.387 208.724 265.713 207.772
C 265.742 206.426 265.842 205.077 265.834 203.732 Z"
opacity="1" fill="rgb(5,8,8)" fill-rule="evenodd" />
<path d="
M 265.835 394.339
C 270.921 393.928 277.095 394.181 281.156 390.544
C 284.12 387.889 285.024 383.142 285.534 379.39
C 286.82 369.923 285.706 359.821 285.751 350.281
C 293.72 350.111 301.683 350.253 309.653 350.204
C 310.006 351.543 309.734 353.119 309.725 354.498
C 309.706 357.666 309.718 360.834 309.72 364.002
C 309.727 373.372 310.151 382.847 309.723 392.203
C 311.626 392.92 314.95 392.257 317.009 392.262
C 322.509 392.277 328.009 392.278 333.509 392.282
C 342.613 392.289 351.87 392.73 360.848 390.895
C 365.879 389.866 370.714 388.372 375.274 385.986
C 391.304 377.596 398.727 360.436 404.037 344.071
C 405.308 344.005 406.8 343.96 408.037 344.298
C 405.756 357.76 403.332 371.272 400.524 384.641
C 399.819 387.997 399.167 391.371 398.546 394.742
C 398.377 395.661 398.402 397.839 397.711 398.493
C 394.054 398.81 390.189 398.435 386.509 398.417
C 378.506 398.379 370.504 398.339 362.501 398.32
C 344.336 398.275 326.172 398.504 308.008 398.437
C 293.983 398.385 279.832 397.916 265.825 398.599
C 265.147 397.715 265.577 395.568 265.506 394.473
C 265.615 394.429 265.725 394.384 265.835 394.339 Z"
opacity="1" fill="rgb(2,6,7)" fill-rule="evenodd" />
<path d="
M 351.876 312.422
C 350.949 314.789 348.798 316.942 347.105 318.784
C 346.329 319.629 345.708 320.69 344.807 321.401
C 342.687 320.388 340.313 317.486 338.668 315.799
C 338.065 315.181 337.343 313.912 336.508 313.723
C 327.295 323.321 316.133 330.652 302.251 330.379
C 284.156 330.023 267.581 317.083 268.338 297.952
C 268.47 294.601 269.104 291.102 270.262 287.95
C 273.292 279.709 279.475 273.218 286.892 268.707
C 290.612 266.445 294.747 264.911 298.366 262.494
C 295.511 258.117 293.146 253.221 292.134 248.065
C 291.368 244.164 291.447 240.012 292.683 236.21
C 295.997 226.018 306.149 222.116 316.202 222.995
C 319.759 223.306 323.282 223.98 326.318 225.984
C 334.918 231.661 333.646 244.022 326.552 250.329
C 321.844 254.515 315.37 255.799 310.132 259.003
C 313.299 264.888 317.909 270.262 321.948 275.567
C 328.559 284.252 335.316 292.852 341.813 301.619
C 342.265 302.076 342.544 300.732 342.705 300.388
C 343.464 298.759 344.408 297.243 345.088 295.572
C 347.394 289.91 349.237 282.98 348.151 276.846
C 347.481 273.06 345.028 269.937 341.434 268.544
C 339.896 267.949 338.081 268.004 336.461 267.829
C 336.158 267.796 334.942 267.844 334.739 267.546
C 334.622 267.374 334.688 266.39 334.691 266.275
C 338.103 265.403 342.469 266.186 346.002 266.145
C 353.301 266.059 360.856 265.635 368.133 266.195
C 368.267 266.8 368.447 267.43 368.092 267.985
C 364.515 269.189 360.703 268.127 357.38 270.542
C 352.096 274.382 351.409 281.525 350.037 287.384
C 349.139 291.214 347.786 294.854 346.273 298.463
C 345.568 300.07 344.059 301.798 343.714 303.479
C 345.542 306.684 349.117 309.988 351.876 312.422 Z
M 280.396 286.087
C 278.125 299.976 284.816 314.794 297.539 321.148
C 306.638 325.693 317.405 324.095 326.071 319.424
C 329.033 317.828 333.538 314.732 334.962 311.549
C 334.178 309.842 332.652 308.421 331.485 306.967
C 329.14 304.045 326.718 301.193 324.321 298.311
C 319.038 291.96 314.091 285.099 309.321 278.354
C 306.997 275.068 304.557 271.862 302.276 268.545
C 301.426 267.308 300.261 264.979 298.989 264.229
C 297.53 264.69 296.216 265.685 294.852 266.376
C 286.588 270.56 282.532 277.321 280.396 286.087 Z
M 299.903 234.576
C 298.652 241.119 301.908 246.864 305.205 252.238
C 306.373 254.142 307.553 256.35 309.053 258.002
C 309.865 257.858 310.579 257.122 311.291 256.721
C 313.041 255.734 314.887 254.821 316.496 253.609
C 324.07 247.902 326.005 235.556 319.105 228.485
C 315.233 224.517 308.396 223.499 303.926 227.188
C 301.701 229.024 300.638 231.891 299.903 234.576 Z"
opacity="1" fill="rgb(183,150,97)" fill-rule="evenodd" />
<path d="
M 285.966 283.091
C 287.135 278.26 290.194 274.624 294.232 271.838
C 295.34 271.074 296.649 269.856 298.008 269.68
C 300.659 276.052 306.567 280.878 310.035 286.742
C 310.281 287.737 309.888 288.805 309.832 289.816
C 309.708 292.037 309.766 294.28 309.803 296.504
C 309.928 304.151 310.459 312.137 309.804 319.753
C 300.109 320.549 289.385 312.264 286.401 303.276
C 285.526 300.643 285.808 297.565 285.799 294.829
C 285.787 290.982 285.402 286.902 285.966 283.091 Z"
opacity="1" fill="rgb(1,5,6)" fill-rule="evenodd" />
<path d="
M 285.885 331.762
C 287.649 331.353 290.879 333.142 292.714 333.591
C 293.399 333.759 294.175 333.82 294.553 334.478
C 292.082 334.974 288.274 334.504 285.781 334.027
C 285.423 333.27 285.684 332.544 285.885 331.762 Z"
opacity="1" fill="rgb(54,53,56)" fill-rule="evenodd" />
<path d="
M 298.843 513.867
C 300.942 513.275 303.79 513.268 304.681 510.794
C 305.708 507.944 304.901 503.512 304.903 500.498
C 304.906 492.664 304.909 484.831 304.923 476.997
C 304.928 474.265 304.979 471.532 304.961 468.799
C 304.952 467.516 305.116 465.887 304.609 464.679
C 303.471 461.966 301.024 462.834 299.066 461.487
C 300.144 460.533 301.887 460.989 303.284 461.05
C 306.183 461.176 309.096 461.082 311.997 461.09
C 313.922 461.095 315.858 460.97 317.78 461.005
C 318.481 461.018 319.656 460.881 319.305 461.886
C 317.115 462.076 314.449 462.487 313.554 464.796
C 312.327 467.961 313.096 472.649 313.104 475.999
C 313.123 483.833 313.134 491.666 313.14 499.5
C 313.142 502.475 313.136 505.45 313.118 508.425
C 313.108 509.967 313.133 511.508 314.587 512.429
C 316.163 513.426 319.198 513.158 321.006 513.197
C 326.873 513.321 333.703 513.393 337.523 508.111
C 339.047 506.003 339.768 503.616 340.466 501.147
C 340.781 500.034 340.91 498.983 342.153 498.753
C 342.642 502.435 341.318 506.774 341.26 510.544
C 341.243 511.61 341.582 513.733 340.804 514.542
C 330.152 514.194 319.426 514.499 308.773 514.557
C 306.213 514.571 303.671 514.764 301.116 514.821
C 300.036 514.845 298.864 515.222 298.843 513.867 Z"
opacity="1" fill="rgb(5,7,7)" fill-rule="evenodd" />
<path d="
M 304.515 236.61
C 305.032 233.06 306.567 230.722 310.082 229.64
C 310.153 235.092 309.723 240.536 309.944 245.998
C 309.997 247.309 309.952 248.61 309.993 249.907
C 310.007 250.372 310.237 251.256 309.812 251.582
C 308.581 251.089 307.879 249.113 307.328 247.988
C 305.626 244.513 304.146 240.54 304.515 236.61 Z"
opacity="1" fill="rgb(9,12,10)" fill-rule="evenodd" />
<path d="
M 348.372 513.314
C 349.781 513.145 351.497 512.9 352.726 512.134
C 355.539 510.384 356.425 505.966 357.61 503.121
C 361.008 494.963 364.412 486.763 367.509 478.493
C 368.888 474.812 372.346 470.21 370.509 466.458
C 371.683 465.645 372.835 464.955 373.563 463.68
C 374.287 462.412 374.748 460.707 375.848 459.731
C 376.964 460.365 377.56 462.949 378.055 464.118
C 379.688 467.97 381.442 471.764 383.052 475.627
C 386.261 483.323 389.463 491.026 392.733 498.696
C 394.311 502.398 395.433 506.43 397.4 509.95
C 398.205 511.39 399.311 512.433 400.84 513.057
C 401.895 513.488 403.633 513.612 404.208 514.654
C 403.141 515.355 400.285 514.758 399.004 514.722
C 395.03 514.611 390.989 514.598 387.02 514.807
C 385.806 514.87 382.321 515.438 382.737 513.801
C 384.449 513.602 387.097 513.473 388.088 511.731
C 388.84 510.409 387.685 508.377 387.232 507.124
C 385.784 503.114 384.385 498.809 382.446 495.022
C 378.266 494.156 373.28 494.86 369.013 494.882
C 366.977 494.892 364.557 494.478 362.6 495.075
C 361.129 498.613 359.647 502.169 358.297 505.754
C 357.71 507.312 356.919 509.384 357.525 511.057
C 358.087 512.606 359.865 513.06 361.246 513.511
C 362.172 513.813 363.344 513.601 363.292 514.847
C 359.707 514.743 356.106 514.592 352.514 514.683
C 351.202 514.716 348.996 515.086 348.085 514.041
C 348.181 513.799 348.277 513.556 348.372 513.314 Z
M 363.456 493.142
C 363.407 493.341 363.359 493.54 363.311 493.74
C 368.014 493.741 372.772 493.43 377.504 493.442
C 378.522 493.444 379.52 493.48 380.536 493.524
C 380.734 493.532 381.849 493.713 381.934 493.552
C 381.423 491.469 380.048 489.355 379.166 487.386
C 377.522 483.717 376.115 479.937 374.636 476.2
C 374.118 474.892 373.773 473.532 373.26 472.228
C 373.115 471.858 372.916 470.915 372.473 470.962
C 368.898 478.088 366.632 485.852 363.456 493.142 Z"
opacity="1" fill="rgb(5,6,6)" fill-rule="evenodd" />
<path d="
M 363.938 320.027
C 364.82 320.246 365.746 319.662 366.589 319.436
C 370.939 318.273 371.956 315.198 373.428 311.279
C 374.157 311.214 374.906 311.267 375.628 311.376
C 375.98 312.246 374.793 315.128 374.527 316.078
C 372.797 322.243 369.123 326.492 362.746 327.967
C 362.587 325.373 363.446 322.56 363.938 320.027 Z"
opacity="1" fill="rgb(183,150,104)" fill-rule="evenodd" />
<path d="
M 398.304 460.867
C 403.525 460.243 409.223 460.958 414.504 460.904
C 415.539 460.893 419.77 460.127 419.219 461.719
C 417.814 461.936 416.366 462.201 415.266 463.164
C 414.037 465.557 416.825 468.714 417.964 470.724
C 421.568 477.082 425.13 483.674 429.085 489.801
C 429.607 489.666 429.796 488.888 429.979 488.439
C 430.53 487.089 431.377 485.818 432.089 484.545
C 434.521 480.195 437.014 475.876 439.369 471.478
C 440.351 469.643 441.818 467.595 441.777 465.41
C 441.742 463.497 440.082 462.434 438.364 462.105
C 437.942 462.024 436.841 462.187 436.546 461.976
C 436.027 461.603 436.231 461.352 436.359 460.916
C 440.231 460.918 444.114 460.98 447.99 460.958
C 448.847 460.953 451.752 460.415 451.297 461.737
C 449.745 462.015 447.881 462.457 446.599 463.405
C 443.436 465.746 442.011 470.264 440.069 473.558
C 437.699 477.58 435.572 481.748 433.213 485.773
C 432.251 487.413 430.934 489.118 430.316 490.926
C 429.698 492.733 430.142 495.03 430.133 496.92
C 430.114 501.105 429.444 505.737 430.02 509.877
C 430.235 511.42 430.887 512.73 432.493 513.192
C 433.552 513.497 435.908 513.365 435.993 514.771
C 430.836 514.868 425.667 514.481 420.511 514.769
C 419.537 514.824 415.636 515.403 415.659 514.137
C 417.158 512.732 419.856 513.89 421.295 511.677
C 422.729 509.473 421.786 504.758 421.796 502.191
C 421.807 499.362 422.35 495.883 421.667 493.125
C 420.97 490.31 418.336 487.445 416.89 484.943
C 413.526 479.125 410.117 473.297 406.555 467.6
C 405.198 465.429 403.594 463.511 401.136 462.647
C 400.179 462.311 398.29 462.023 398.304 460.867 Z"
opacity="1" fill="rgb(5,6,6)" fill-rule="evenodd" />
<path d="
M 456.459 485.616
C 457.124 480.759 458.305 476.588 460.719 472.284
C 469.831 456.033 493.116 456.667 503.778 470.741
C 512.916 482.805 509.145 500.552 498.338 510.099
C 489.226 518.082 473.998 516.877 465.316 508.73
C 459.1 502.898 455.841 494.087 456.459 485.616 Z
M 465.011 481.625
C 464.653 492.096 468.499 505.149 477.371 511.464
C 478.813 512.49 480.573 513.18 482.273 513.627
C 483.859 514.045 485.328 514.206 486.969 514.062
C 496.766 513.202 500.112 503.199 500.454 494.75
C 500.856 484.819 498.009 472.493 490.218 465.718
C 488.654 464.358 486.853 463.153 484.922 462.38
C 483.44 461.787 481.711 461.445 480.116 461.436
C 469.207 461.37 465.322 472.49 465.011 481.625 Z"
opacity="1" fill="rgb(4,5,5)" fill-rule="evenodd" />
<path d="
M 518.967 460.917
C 524.023 460.836 529.169 460.952 534.228 461.103
C 535.211 461.132 539.255 460.481 538.854 461.775
C 537.254 462.205 535.55 462.071 534.283 463.303
C 532.901 464.647 532.88 466.564 532.817 468.369
C 532.699 471.741 532.79 475.122 532.789 478.496
C 532.788 483.163 532.795 487.83 532.809 492.497
C 532.82 496.127 532.716 499.844 533.678 503.38
C 535.392 509.676 541.256 513.94 547.812 513.527
C 549.585 513.416 551.228 513.15 552.901 512.534
C 562.944 508.84 561.97 495.999 561.941 487.382
C 561.935 485.344 562.014 483.304 562.067 481.265
C 562.191 476.473 562.514 471.12 561.831 466.364
C 561.508 464.118 559.758 462.863 557.725 462.329
C 557.221 462.196 555.909 462.227 555.525 461.929
C 554.925 461.463 555.128 461.432 555.395 460.922
C 559.245 461.044 563.139 461.136 566.993 461.1
C 568.036 461.091 570.373 460.38 570.259 461.721
C 568.333 462.614 566.475 462.103 565.006 464.043
C 562.75 467.022 563.787 472.95 563.776 476.491
C 563.753 483.643 563.989 490.881 563.426 497.988
C 563.112 501.947 562.364 505.678 559.941 508.96
C 551.448 520.466 529.02 516.918 525.233 502.949
C 524.279 499.429 524.583 495.607 524.581 491.997
C 524.579 486.331 524.577 480.665 524.587 474.999
C 524.591 472.511 524.636 470.02 524.59 467.533
C 524.567 466.287 524.573 464.868 523.801 463.816
C 522.555 462.117 519.977 462.405 518.404 461.321
C 518.591 461.186 518.779 461.052 518.967 460.917 Z"
opacity="1" fill="rgb(4,5,5)" fill-rule="evenodd" />
<path d="
M 577.479 462.089
C 577.587 461.52 577.536 461.854 577.604 461.081
C 578.41 460.532 580.038 460.809 581.008 460.811
C 583.839 460.819 586.671 460.851 589.502 460.888
C 597.329 460.988 605.172 461.038 613 460.995
C 616.436 460.977 621.053 460.127 624.349 461.133
C 624.208 464.016 624.308 467.04 624.54 469.92
C 624.662 471.426 625.184 473.341 624.792 474.81
C 623.294 474.952 623.33 473.749 623.085 472.598
C 622.516 469.928 621.432 467.141 619.52 465.134
C 616.2 461.65 609.849 461.981 605.411 462.512
C 604.917 463.368 605.234 464.996 605.246 465.998
C 605.285 468.997 605.262 471.999 605.271 474.999
C 605.295 483.152 605.336 491.305 605.319 499.459
C 605.312 503.033 604.516 507.558 605.457 511.024
C 605.964 512.889 607.652 513.13 609.246 513.548
C 610.192 513.796 611.243 513.589 611.334 514.753
C 610.359 515.243 608.399 514.834 607.311 514.806
C 604.209 514.727 601.105 514.698 598.002 514.681
C 596.238 514.671 594.479 514.856 592.713 514.854
C 591.853 514.852 590.71 515.015 591.308 513.837
C 593.652 513.519 596.24 513.444 596.943 510.683
C 597.814 507.264 597.213 503.021 597.228 499.508
C 597.26 491.842 597.257 484.176 597.235 476.51
C 597.226 473.344 597.224 470.178 597.187 467.012
C 597.17 465.551 597.418 463.88 596.908 462.487
C 592.162 461.96 585.688 461.974 582.212 465.655
C 580.282 467.699 579.506 470.065 578.812 472.721
C 578.667 473.277 578.395 475.144 577.443 474.862
C 576.709 474.644 577.154 472.536 577.176 471.98
C 577.304 468.718 577.085 465.325 577.479 462.089 Z"
opacity="1" fill="rgb(4,6,5)" fill-rule="evenodd" />

</svg>